<svg width="83" height="83" viewBox="0 0 83 83" fill="none" xmlns="http://www.w3.org/2000/svg">
<path d="M41.5 83C64.4198 83 83 64.4198 83 41.5C83 18.5802 64.4198 0 41.5 0C18.5802 0 0 18.5802 0 41.5C0 64.4198 18.5802 83 41.5 83Z" fill="#244D3E"/>
<path d="M21.868 18.139V18.1097C21.868 15.2451 24.0982 12.9027 27.1482 12.9027C28.9587 12.9027 30.0567 13.3907 31.1059 14.2838L29.7102 15.9674C28.9343 15.3183 28.2413 14.9475 27.0799 14.9475C25.4695 14.9475 24.186 16.3724 24.186 18.0853V18.1146C24.186 19.9544 25.4499 21.3062 27.236 21.3062C28.0413 21.3062 28.7586 21.1061 29.3198 20.701V19.2614H27.0896V17.3484H31.4622V21.721C30.4276 22.5994 29.0026 23.3167 27.1628 23.3167C24.025 23.3167 21.868 21.1158 21.868 18.139Z" fill="white"/>
<path d="M33.0287 15.4355H35.215V16.9874C35.6591 15.9235 36.3813 15.2305 37.6746 15.2891V17.5778H37.5574C36.1032 17.5778 35.2101 18.4562 35.2101 20.296V23.146H33.0239V15.4355H33.0287Z" fill="white"/>
<path d="M37.8896 20.9304V20.9012C37.8896 19.2175 39.1682 18.4416 40.9982 18.4416C41.7741 18.4416 42.3353 18.5685 42.8819 18.7588V18.6271C42.8819 17.7194 42.3207 17.2167 41.2275 17.2167C40.3931 17.2167 39.8026 17.3729 39.0998 17.6315L38.5533 15.9674C39.4024 15.5917 40.2369 15.3477 41.5447 15.3477C42.7404 15.3477 43.6041 15.6649 44.1507 16.2114C44.7265 16.7873 44.9852 17.6364 44.9852 18.671V23.146H42.8721V22.3115C42.3402 22.902 41.6082 23.2875 40.5395 23.2875C39.0852 23.2875 37.8896 22.453 37.8896 20.9304ZM42.9112 20.4278V20.0374C42.5354 19.8666 42.0474 19.7495 41.5155 19.7495C40.5785 19.7495 40.0027 20.1252 40.0027 20.8133V20.8426C40.0027 21.4331 40.4907 21.7796 41.1983 21.7796C42.2231 21.7796 42.9112 21.2184 42.9112 20.4278Z" fill="white"/>
<path d="M46.8249 20.9599V17.3047H45.9025V15.4357H46.8249V13.4641H49.0111V15.4357H50.8216V17.3047H49.0111V20.5988C49.0111 21.1014 49.2258 21.3454 49.7139 21.3454C50.1189 21.3454 50.4751 21.2429 50.7923 21.0721V22.8289C50.3336 23.1022 49.8017 23.273 49.0648 23.273C47.7277 23.273 46.8249 22.7411 46.8249 20.9599Z" fill="white"/>
<path d="M52.1443 12.6442H54.4477V14.5864H52.1443V12.6442ZM52.2029 15.4356H54.3892V23.146H52.2029V15.4356Z" fill="white"/>
<path d="M55.5111 22.126L56.4481 20.6864C57.2826 21.2915 58.161 21.6088 58.8783 21.6088C59.5128 21.6088 59.8007 21.3794 59.8007 21.0329V21.0036C59.8007 20.5303 59.054 20.3692 58.2049 20.1106C57.1264 19.7934 55.9015 19.2907 55.9015 17.7925V17.7633C55.9015 16.1968 57.1654 15.3184 58.7222 15.3184C59.6982 15.3184 60.7669 15.6502 61.6014 16.2114L60.7669 17.7193C60.0056 17.2753 59.2444 17.002 58.6831 17.002C58.1512 17.002 57.8779 17.2313 57.8779 17.5339V17.5632C57.8779 17.9926 58.6099 18.1976 59.4444 18.4855C60.5229 18.8466 61.7771 19.3639 61.7771 20.7743V20.8035C61.7771 22.5164 60.4985 23.2924 58.8295 23.2924C57.7413 23.2875 56.531 22.9312 55.5111 22.126Z" fill="white"/>
<path d="M67.6322 61.2594H52.6211L48.8244 65.0122C48.4682 65.3636 47.9899 65.5588 47.4922 65.5588H42.944C42.7927 65.5588 42.6756 65.4368 42.6756 65.2904V63.7239C42.6756 63.4115 42.4218 63.1529 42.1046 63.1529H38.181C37.9468 63.1529 37.7223 63.2651 37.5808 63.4555L36.3705 65.1098C36.1656 65.3928 35.8386 65.5588 35.4872 65.5588H20.0028C18.817 65.5588 17.8556 64.5974 17.8556 63.4115V30.1686C17.8556 28.9827 18.817 28.0214 20.0028 28.0214H67.6322C68.818 28.0214 69.7794 28.9827 69.7794 30.1686V59.1171C69.7794 60.2981 68.818 61.2594 67.6322 61.2594Z" stroke="#1CAA6F" stroke-width="0.460385" stroke-miterlimit="10"/>
<path d="M23.5949 53.6953C22.7604 52.8608 22.2187 51.5969 22.2187 49.4985V49.4643C22.2187 45.9751 23.9169 43.3154 27.4208 43.3154C28.9873 43.3154 30.0805 43.7498 31.1492 44.5501L29.6901 46.7266C29.002 46.2142 28.3627 45.8775 27.4647 45.8775C25.8495 45.8775 25.4298 47.3805 25.3517 48.2784C26.0739 47.7172 26.8108 47.4147 27.7673 47.4147C29.7389 47.4147 31.4664 48.664 31.4664 50.9039V50.9381C31.4664 53.4367 29.4656 54.9739 27.0158 54.9739C25.4346 54.9739 24.4147 54.4956 23.5949 53.6953ZM28.4652 51.1186V51.0845C28.4652 50.2695 27.8405 49.6449 26.8645 49.6449C25.8885 49.6449 25.3126 50.2549 25.3126 51.0698V51.104C25.3126 51.919 25.9227 52.5631 26.8987 52.5631C27.8698 52.5583 28.4652 51.9336 28.4652 51.1186Z" fill="white"/>
<path d="M38.3282 52.573H32.8821L32.3843 50.3818L38.1965 43.4668H41.3197V50.255H42.7447V52.5779H41.3197V54.7544H38.3282V52.573ZM38.3282 50.2696V47.0341L35.6393 50.2696H38.3282Z" fill="white"/>
<path d="M43.8173 49.1814V49.1472C43.8173 45.8825 46.3793 43.3204 49.8344 43.3204C51.8059 43.3204 53.1967 43.9109 54.3826 44.9357L52.5574 47.1464C51.7571 46.473 50.9714 46.0874 49.8539 46.0874C48.2386 46.0874 46.9893 47.4343 46.9893 49.1472V49.1814C46.9893 51.0065 48.2532 52.3046 50.0296 52.3046C50.7957 52.3046 51.3716 52.1436 51.8206 51.841V50.4795H49.6294V48.2054H54.7681V53.2318C53.5823 54.2225 51.9523 54.9789 49.9027 54.9789C46.4135 54.974 43.8173 52.573 43.8173 49.1814Z" fill="white"/>
<path d="M56.5017 43.5448H62.2504C63.6608 43.5448 64.6514 43.8962 65.3102 44.5355C65.7592 44.9991 66.0325 45.5944 66.0325 46.3606V46.3948C66.0325 47.6928 65.2956 48.459 64.3049 48.8933C65.6665 49.3423 66.5302 50.1085 66.5302 51.6311V51.6652C66.5302 53.588 64.9588 54.7543 62.2895 54.7543H56.5115V43.5448H56.5017ZM62.9678 47.0048C62.9678 46.3801 62.47 46.0434 61.5574 46.0434H59.5225V48.0149H61.4745C62.4212 48.0149 62.9629 47.6928 62.9629 47.0389V47.0048H62.9678ZM61.8991 50.1866H59.5273V52.2508H61.9283C62.8897 52.2508 63.4167 51.8848 63.4167 51.226V51.1918C63.4167 50.5867 62.9385 50.1866 61.8991 50.1866Z" fill="white"/>
<path d="M21.9652 34.9611H22.6972L23.5122 36.2689L24.3223 34.9611H25.0543V38.0501H24.3808V36.0347L23.5122 37.3572H23.4927L22.6338 36.0493V38.055H21.9652V34.9611Z" fill="white"/>
<path d="M25.8007 34.9607H28.1333V35.5658H26.479V36.1953H27.9381V36.8005H26.479V37.4495H28.1577V38.0547H25.8055V34.9607H25.8007Z" fill="white"/>
<path d="M28.7579 34.9607H29.4899L30.3049 36.2685L31.1199 34.9607H31.8519V38.0498H31.1784V36.0343L30.3098 37.3568H30.2903L29.4314 36.0489V38.0547H28.7628V34.9607H28.7579Z" fill="white"/>
<path d="M32.4568 36.5175V36.5078C32.4568 35.6294 33.1498 34.9071 34.1063 34.9071C35.0628 34.9071 35.746 35.6196 35.746 36.498V36.5078C35.746 37.3862 35.053 38.1084 34.0965 38.1084C33.1401 38.1084 32.4568 37.3959 32.4568 36.5175ZM35.0286 36.5175V36.5078C35.0286 35.9758 34.6382 35.5366 34.0917 35.5366C33.5451 35.5366 33.1645 35.971 33.1645 36.498V36.5078C33.1645 37.0397 33.5549 37.4789 34.1014 37.4789C34.648 37.4789 35.0286 37.0446 35.0286 36.5175Z" fill="white"/>
<path d="M36.3469 34.9607H37.7621C38.1574 34.9607 38.4599 35.0729 38.6649 35.273C38.8357 35.4438 38.9284 35.6878 38.9284 35.9806V35.9904C38.9284 36.4882 38.66 36.8054 38.2647 36.9469L39.0211 38.0498H38.2257L37.562 37.0591H37.0301V38.0498H36.3517V34.9607H36.3469ZM37.7182 36.4638C38.05 36.4638 38.2403 36.2881 38.2403 36.0245V36.0148C38.2403 35.722 38.0354 35.5707 37.7084 35.5707H37.0349V36.4589H37.7182V36.4638Z" fill="white"/>
<path d="M39.5721 34.9607H40.2504V38.0498H39.5721V34.9607Z" fill="white"/>
<path d="M42.0857 34.941H42.7152L44.0377 38.0545H43.3252L43.0422 37.3615H41.7343L41.4513 38.0545H40.7583L42.0857 34.941ZM42.7982 36.7613L42.3882 35.7609L41.9783 36.7613H42.7982Z" fill="white"/>
<path d="M45.6282 37.6008L46.0284 37.1176C46.3066 37.347 46.5994 37.4934 46.9507 37.4934C47.2289 37.4934 47.3948 37.3812 47.3948 37.2006V37.1909C47.3948 37.02 47.2875 36.9322 46.7702 36.8004C46.1455 36.6394 45.7454 36.4686 45.7454 35.8537V35.844C45.7454 35.2827 46.1943 34.9119 46.8287 34.9119C47.2777 34.9119 47.6632 35.0534 47.9755 35.3071L47.6242 35.8196C47.3509 35.6292 47.0825 35.517 46.819 35.517C46.5603 35.517 46.4237 35.6341 46.4237 35.7854V35.7952C46.4237 36.0001 46.5554 36.0636 47.0923 36.2002C47.7169 36.3612 48.0731 36.5906 48.0731 37.1274V37.1372C48.0731 37.7521 47.6047 38.0937 46.9361 38.0937C46.4725 38.0985 45.9991 37.9326 45.6282 37.6008Z" fill="white"/>
<path d="M48.669 34.9607H49.8744C50.8455 34.9607 51.519 35.6293 51.519 36.4979V36.5077C51.519 37.3763 50.8455 38.0547 49.8744 38.0547H48.669V34.9607ZM49.3473 35.5756V37.4398H49.8744C50.4307 37.4398 50.8065 37.064 50.8065 36.5174V36.5077C50.8065 35.9611 50.4307 35.5756 49.8744 35.5756H49.3473Z" fill="white"/>
<path d="M53.3097 36.5175V36.5078C53.3097 35.6294 53.9734 34.9071 54.9201 34.9071C55.5008 34.9071 55.8522 35.1023 56.1401 35.3854L55.7058 35.8831C55.4667 35.6684 55.2227 35.5366 54.9152 35.5366C54.3931 35.5366 54.0173 35.971 54.0173 36.498V36.5078C54.0173 37.0397 54.3833 37.4789 54.9152 37.4789C55.2666 37.4789 55.4862 37.3374 55.7302 37.1178L56.1645 37.557C55.8473 37.8986 55.4911 38.1084 54.8957 38.1084C53.9831 38.1084 53.3097 37.4057 53.3097 36.5175Z" fill="white"/>
<path d="M57.7655 34.941H58.395L59.7175 38.0545H59.005L58.722 37.3615H57.4141L57.1311 38.0545H56.4381L57.7655 34.941ZM58.4829 36.7613L58.0729 35.756L57.663 36.7564H58.4829V36.7613Z" fill="white"/>
<path d="M60.1951 34.9607H61.6103C62.0056 34.9607 62.3081 35.0729 62.5131 35.273C62.6839 35.4438 62.7766 35.6878 62.7766 35.9806V35.9904C62.7766 36.4882 62.5082 36.8054 62.1129 36.9469L62.8693 38.0498H62.0739L61.4102 37.0591H60.8783V38.0498H60.1999V34.9607H60.1951ZM61.5664 36.4638C61.8982 36.4638 62.0885 36.2881 62.0885 36.0245V36.0148C62.0885 35.722 61.8836 35.5707 61.5566 35.5707H60.8832V36.4589H61.5664V36.4638Z" fill="white"/>
<path d="M63.3871 34.9607H64.5925C65.5636 34.9607 66.237 35.6293 66.237 36.4979V36.5077C66.237 37.3763 65.5636 38.0547 64.5925 38.0547H63.3871V34.9607ZM64.0703 35.5756V37.4398H64.5973C65.1537 37.4398 65.5294 37.064 65.5294 36.5174V36.5077C65.5294 35.9611 65.1537 35.5756 64.5973 35.5756H64.0703Z" fill="white"/>
<path d="M8.47609 48.188H11.4768V44.3843H15.3016V41.4682H11.4768V37.6645H8.47609V41.4682H4.6513V44.3843H8.47609V48.188Z" fill="#00A162"/>
</svg>
