<svg width="437" height="98" viewBox="0 0 437 98" fill="none" xmlns="http://www.w3.org/2000/svg">
<path d="M432.973 30.6601C432.973 33.1271 429.573 35.212 423.821 35.212C418.071 35.212 414.671 33.1271 414.671 30.6601V30.5905C414.671 27.8794 418.721 25.9685 423.821 25.9685C428.922 25.9685 432.973 27.8794 432.973 30.5905V30.6601ZM415.821 19.2615V19.1919C415.821 16.7591 419.271 14.9867 423.821 14.9867C428.373 14.9867 431.822 16.7939 431.822 19.1919V19.2615C431.822 21.9024 428.272 23.7096 423.821 23.7096C419.372 23.7096 415.821 21.9024 415.821 19.2615ZM429.772 24.6825C433.021 23.64 435.77 21.9024 435.77 19.0875V19.0179C435.77 15.265 430.22 12.5886 423.82 12.5886C417.421 12.5886 411.871 15.265 411.871 19.0179V19.0875C411.871 21.9024 414.621 23.64 417.871 24.6825C413.67 25.7249 410.671 27.7757 410.671 30.6601V30.729C410.671 34.7951 416.371 37.61 423.82 37.61C431.27 37.61 436.971 34.8299 436.971 30.6943V30.6253C436.972 27.7409 433.921 25.7597 429.772 24.6825Z" fill="white"/>
<path d="M140.309 52.3647C128.273 52.3647 118.5 45.5734 118.5 37.2071C118.5 28.8421 128.273 22.0495 140.309 22.0495C152.346 22.0495 162.118 28.8421 162.118 37.2071C162.117 45.5728 152.242 52.3647 140.309 52.3647ZM140.309 12.9692C120.969 12.9692 105.332 23.8366 105.332 37.2071C105.332 50.5776 120.969 61.4463 140.206 61.4463C159.444 61.4463 175.08 50.5776 175.08 37.2071C175.183 23.8366 159.547 12.9692 140.309 12.9692Z" fill="white"/>
<path d="M253.675 52.3647C241.64 52.3647 231.866 45.5734 231.866 37.2071C231.866 28.8421 241.64 22.0495 253.675 22.0495C265.711 22.0495 275.484 28.8421 275.484 37.2071C275.485 45.5728 265.609 52.3647 253.675 52.3647ZM253.675 12.9692C234.438 12.9692 218.801 23.8366 218.801 37.2071C218.801 50.5776 234.437 61.4463 253.675 61.4463C272.914 61.4463 288.549 50.5776 288.549 37.2071C288.549 23.8366 272.914 12.9692 253.675 12.9692Z" fill="white"/>
<path d="M358.618 56.1845C343.536 56.1845 331.311 47.6877 331.311 37.2057C331.311 26.7244 343.536 18.2269 358.618 18.2269C373.699 18.2269 385.924 26.7244 385.924 37.2057C385.925 47.687 373.699 56.1845 358.618 56.1845ZM386.11 22.2896C374.256 11.7374 352.339 9.86126 337.155 18.0991C321.973 26.337 319.273 41.5695 331.126 52.1225C342.979 62.6747 364.897 64.5509 380.08 56.3137C382.318 55.0986 384.337 53.6975 386.087 52.1425C386.111 54.0608 386.111 55.9664 386.111 57.872C386.111 71.6024 373.59 78.6265 355.948 78.6265C346.944 78.6265 338.419 76.9652 330.674 73.8024L327.236 78.306C336.038 81.7331 345.631 83.4467 355.799 83.4467C377.665 83.4467 393.5 74.4333 393.5 58.1898V12.9705H386.111C386.111 16.1661 386.11 19.3637 386.11 22.2896Z" fill="white"/>
<path d="M196.889 42.4982V22.0495H213.76V12.9692H196.889V0.855957H183.824V42.4982C183.824 52.9367 196.067 61.4443 211.086 61.4443H213.862V52.3653H211.086C203.267 52.3653 196.889 47.9326 196.889 42.4982Z" fill="white"/>
<path d="M12.7915 85.7932C18.6804 85.7932 22.538 83.6046 22.538 80.3595V80.2886C22.538 76.7618 18.7314 74.9265 12.9956 74.9265H4.00967V85.7932H12.7915ZM0 72.3518H13.2998C21.3211 72.3518 26.5996 75.3152 26.5996 80.1842V80.2538C26.5996 85.5804 20.2034 88.3331 12.6394 88.3331H4.00967V97.0473H0V72.3518Z" fill="white"/>
<path d="M64.4166 84.7702V84.6993C64.4166 79.0896 58.5278 74.5044 50.4054 74.5044C42.284 74.5044 36.4962 79.0201 36.4962 84.6297V84.6993C36.4962 90.3097 42.3851 94.8956 50.5065 94.8956C58.6289 94.8956 64.4166 90.3799 64.4166 84.7702ZM32.3335 84.7702V84.6993C32.3335 77.8906 39.6944 71.9283 50.5065 71.9283C61.3196 71.9283 68.5784 77.8204 68.5784 84.6291V84.6986C68.5784 91.5087 61.2186 97.4696 50.4054 97.4696C39.5923 97.4696 32.3335 91.5796 32.3335 84.7702Z" fill="white"/>
<path d="M72.4861 72.3519H76.852L87.0047 92.9204L96.7511 72.2803H100.05L109.797 92.9204L119.949 72.3519H124.162L111.473 97.224H108.07L98.3232 77.1847L88.5277 97.224H85.1774L72.4861 72.3519Z" fill="white"/>
<path d="M131.42 72.3518H157.105V74.8917H135.43V83.3222H154.822V85.8628H135.43V94.5068H157.36V97.048H131.42V72.3518Z" fill="white"/>
<path d="M180.355 84.9468C185.684 84.9468 189.492 83.0412 189.492 79.865V79.7955C189.492 76.7611 186.141 74.9265 180.405 74.9265H169.439V84.9468H180.355ZM165.43 72.3518H180.709C185.075 72.3518 188.577 73.2691 190.812 74.8201C192.537 76.0198 193.552 77.7487 193.552 79.6891V79.76C193.552 83.8515 189.492 86.2502 183.907 86.9574L194.821 97.0473H189.897L179.593 87.4499H169.439V97.0473H165.43V72.3518Z" fill="white"/>
<path d="M83.5225 31.9166V60.7297H96.5874V31.9166C96.5874 21.4781 84.3446 12.9692 69.3254 12.9692C60.9922 12.9692 53.5861 15.5432 48.5444 19.6187C43.5037 15.5432 36.0966 12.9692 27.7644 12.9692C12.8482 12.9692 0.605469 21.4781 0.605469 31.9166V60.7297H13.6704V31.9166C13.6704 26.4822 20.0493 22.0495 27.8674 22.0495C35.6865 22.0495 42.0645 26.4822 42.0645 31.9166V60.7297H55.1294V31.9166C55.1294 26.4822 61.5073 22.0495 69.3254 22.0495C77.1445 22.0495 83.5225 26.4822 83.5225 31.9166Z" fill="white"/>
</svg>
