<svg width="138" height="23" viewBox="0 0 138 23" fill="none" xmlns="http://www.w3.org/2000/svg">
<g clip-path="url(#clip0)">
<path d="M125.065 4.25637C124.294 3.91278 123.129 3.68201 121.618 3.68201H121.435C120.511 3.68201 119.262 3.79996 118.052 4.0256C117.849 4.0615 117.765 4.17432 117.765 4.41534V6.20509C117.765 6.43073 117.879 6.50765 118.121 6.46663C119.183 6.30253 120.274 6.18458 121.114 6.18458H121.232C122.423 6.18458 123.386 6.2974 123.964 6.70252C124.541 7.10765 124.828 7.70252 124.828 9.01022V9.39483C123.954 9.20509 122.902 9.07688 121.939 9.07688H121.682C120.077 9.07688 118.565 9.48201 117.602 10.4102C116.861 11.1282 116.377 12.2051 116.377 13.5846V13.7025C116.377 16.4769 118.22 18.1846 121.968 18.1846H122.635C124.107 18.1846 125.509 17.7282 126.349 17.0051C127.317 16.1743 127.693 14.9436 127.693 12.9743V8.96406C127.693 6.24099 126.665 4.97432 125.065 4.25637ZM124.823 12.9179C124.823 13.9692 124.788 14.5846 124.423 15.0205C124.033 15.482 123.346 15.7025 122.413 15.7025H121.958C120.235 15.7025 119.232 14.9846 119.232 13.6051C119.232 12.9743 119.474 12.4102 119.844 12.082C120.284 11.6923 120.921 11.4974 122.023 11.4974H122.265C123.094 11.4974 124.043 11.5846 124.828 11.8V12.9179H124.823ZM136.82 3.68201H135.274C133.056 3.68201 131.323 4.48201 130.577 6.15381C130.256 6.87688 130.157 7.84099 130.157 8.88201V17.6666C130.157 17.8615 130.246 17.9384 130.439 17.9384H132.745C132.938 17.9384 133.022 17.8615 133.022 17.6666V10.3179C133.022 9.28201 133.041 8.52304 133.096 8.05637C133.229 6.84099 133.94 6.26663 135.6 6.26663H136.83C137.027 6.26663 137.116 6.15894 137.116 5.96406V3.98458C137.111 3.78458 137.017 3.68201 136.82 3.68201ZM81.4834 17.9384H83.9825C84.1998 17.9384 84.2937 17.8666 84.3826 17.6923C86.0026 14.5282 88.477 9.12304 88.6449 4.2256C88.6498 4.03073 88.5708 3.94868 88.3288 3.94868H85.9976C85.726 3.94868 85.6519 4.04099 85.6371 4.29227C85.5284 6.07688 85.1629 8.14868 84.6345 10.0051C84.0862 11.9179 83.3898 13.7436 82.7231 15.0974C82.0563 13.7436 81.3599 11.9179 80.8117 10.0051C80.2783 8.14355 79.9128 6.05124 79.8091 4.2615C79.7943 4.00509 79.6609 3.95381 79.4238 3.95381H77.0778C76.8309 3.95381 76.7617 4.07176 76.7815 4.33329C77.1124 9.13329 78.5496 12.8666 81.0438 17.7077C81.1327 17.8769 81.2661 17.9384 81.4834 17.9384ZM100.039 11.6666C100.661 11.9077 101.18 12.1025 101.792 12.3333C103.111 12.8205 103.679 13.2051 103.679 14.0461C103.679 15.1282 102.8 15.7077 100.81 15.7077H100.736C99.6144 15.7077 98.3253 15.4769 97.1943 15.1025C96.9622 15.0256 96.8337 15.1179 96.8337 15.3589V17.1436C96.8337 17.3692 96.8683 17.5025 97.1103 17.5897C98.192 17.9743 99.6786 18.1948 100.894 18.1948H100.987C104.524 18.1948 106.44 16.5641 106.44 13.923V13.882C106.44 12.8615 106.119 11.9436 105.516 11.3282C104.929 10.7282 104.03 10.2615 102.647 9.72304C101.911 9.43586 101.338 9.22047 100.824 9.0256C99.6737 8.5897 99.3526 8.17945 99.3526 7.56919C99.3526 6.55381 100.311 6.15894 101.852 6.15894H101.97C102.859 6.15894 103.936 6.29227 105.245 6.53842C105.487 6.58458 105.625 6.52817 105.625 6.27176V4.43073C105.625 4.1897 105.561 4.12304 105.324 4.06663C104.474 3.88201 102.933 3.68201 102.069 3.68201H101.862C100.059 3.68201 98.7204 4.03073 97.8265 4.83586C97.1005 5.49227 96.6164 6.48201 96.6164 7.66663V7.75381C96.6164 8.85124 96.9819 9.73842 97.6141 10.3384C98.1969 10.9077 98.9871 11.2615 100.039 11.6666ZM114.239 17.9384C114.436 17.9384 114.545 17.8256 114.545 17.6461V15.6512C114.545 15.4718 114.436 15.3589 114.239 15.3589H113.933C113.019 15.3589 112.456 15.1282 112.11 14.7538C111.656 14.2564 111.562 13.4461 111.562 12.4871V6.43073H114.1C114.293 6.43073 114.387 6.35381 114.387 6.15894V4.22047C114.387 4.0256 114.293 3.94868 114.1 3.94868H111.562V1.43586C111.562 1.24099 111.468 1.16406 111.275 1.16406H108.969C108.776 1.16406 108.687 1.24099 108.687 1.43586V12.6512C108.687 14.6051 109.063 15.8461 109.887 16.7025C110.663 17.5025 111.873 17.9384 113.631 17.9384H114.239ZM55.1932 3.68201H54.4968C52.4915 3.68201 51.163 4.23586 50.516 5.05637H50.5011C49.8541 4.23586 48.4416 3.68201 46.4364 3.68201H45.7202C43.4631 3.68201 41.611 4.4974 40.8652 6.16919C40.5441 6.88714 40.4404 7.85637 40.4404 8.8974V17.6153C40.4404 17.8051 40.5491 17.9333 40.7368 17.9333H43.0136C43.2013 17.9333 43.31 17.8051 43.31 17.6153L43.3149 10.3589C43.3149 9.31791 43.3396 8.56406 43.389 8.0974C43.5224 6.87688 44.3916 6.28714 46.0511 6.28714H46.2388C47.8983 6.28714 48.812 6.87688 48.9404 8.0974C48.9898 8.56406 49.0145 9.31791 49.0145 10.3589V17.6256C49.0145 17.8153 49.1281 17.9436 49.3158 17.9436H51.5976C51.7853 17.9436 51.889 17.7948 51.889 17.6L51.8939 10.3589C51.8939 9.31791 51.9186 8.56406 51.968 8.0974C52.0964 6.87688 53.0101 6.28714 54.6696 6.28714H54.8623C56.5218 6.28714 57.391 6.87688 57.5244 8.0974C57.5738 8.56406 57.5985 9.31791 57.5985 10.3589V17.6256C57.5985 17.8256 57.7121 17.9436 57.8997 17.9436H60.1815C60.3692 17.9436 60.4779 17.7948 60.4779 17.6V8.90253C60.4779 7.8615 60.3692 6.89227 60.0531 6.17432C59.3073 4.4974 57.4503 3.68201 55.1932 3.68201ZM74.8059 14.8C75.0825 13.8461 75.2405 12.7538 75.2405 10.9436C75.2405 9.13329 75.0874 8.03586 74.8059 7.08201C74.1045 4.65124 72.2574 3.68714 69.2594 3.68714H68.9038C65.9058 3.68714 64.0587 4.65124 63.3524 7.08201C63.0758 8.03073 62.9227 9.12817 62.9227 10.9436C62.9227 12.7538 63.0758 13.8512 63.3524 14.8C64.0587 17.2307 65.9058 18.2 68.9038 18.2H69.2594C72.2574 18.1948 74.1045 17.2256 74.8059 14.8ZM72.2129 12.9794C71.9907 15.2461 70.8893 15.6051 69.1162 15.6051H69.0421C67.2739 15.6051 66.1676 15.2512 65.9503 12.9794C65.8811 12.2923 65.8268 11.7282 65.8268 10.9384C65.8268 10.1487 65.8811 9.57945 65.9503 8.8974C66.1725 6.63073 67.2739 6.27688 69.0421 6.27688H69.1162C70.8893 6.27688 71.9907 6.63073 72.2129 8.8974C72.2821 9.58458 72.3364 10.1487 72.3364 10.9384C72.3364 11.7282 72.2821 12.2974 72.2129 12.9794ZM93.6086 3.95381H91.3021C91.1095 3.95381 91.0156 4.03073 91.0156 4.2256L91.0206 17.6666C91.0206 17.8615 91.1095 17.9384 91.3021 17.9384H93.6086C93.8012 17.9384 93.8951 17.8615 93.8951 17.6666L93.8901 4.2256C93.8901 4.03073 93.8012 3.95381 93.6086 3.95381Z" fill="white"/>
<path d="M5.6403 2.66673C4.25245 2.68724 1.68418 3.40006 0.513637 8.36929C-1.75341e-05 10.5385 -0.197577 12.7949 0.241993 15.4821C0.64205 17.9642 1.3582 20.1026 1.84222 21.2821C2.01015 21.6872 2.26698 22.1129 2.46453 22.3744C3.03252 23.1231 3.98574 23.077 4.3858 22.8719C4.82043 22.6513 5.32421 22.1129 5.14146 20.8821C5.05256 20.2872 4.80067 19.4206 4.65744 18.9385C4.22281 17.4565 3.64001 15.6719 3.59062 14.4001C3.52148 12.6975 4.16848 12.477 4.59818 12.3795C5.31927 12.2154 5.92676 13.036 6.49968 14.0667C7.1862 15.2975 8.36168 17.477 9.31984 19.1437C10.1842 20.6462 11.7844 22.2565 14.3477 22.1488C16.9654 22.036 18.8916 21.0001 19.8843 17.7385C20.6252 15.2975 21.1339 13.4719 21.9488 11.6052C22.8872 9.45647 24.1368 8.30775 25.1888 8.65647C26.1667 8.98468 26.4087 9.97442 26.4235 11.4308C26.4334 12.7231 26.2902 14.1437 26.1766 15.1898C26.1371 15.5693 26.063 16.3334 26.0926 16.7539C26.1519 17.5847 26.4976 18.4154 27.4015 18.5488C28.3646 18.6924 29.135 17.8924 29.4413 16.9283C29.5647 16.5488 29.6685 15.9642 29.7228 15.5539C30.0043 13.4667 30.0784 12.0667 29.95 9.9334C29.8018 7.44109 29.3326 5.16416 28.5127 3.19493C27.7274 1.31288 26.468 0.107754 24.8529 6.12549e-05C23.065 -0.117887 21.0104 1.11288 19.9337 3.50775C18.941 5.71288 18.1458 7.97442 17.6667 9.12827C17.1778 10.2975 16.4616 11.0206 15.3553 11.1437C14.0069 11.2924 12.8413 10.2719 11.9918 8.82057C11.251 7.55391 9.77917 5.14878 8.98893 4.33852C8.24809 3.58468 7.40352 2.63596 5.6403 2.66673Z" fill="white"/>
</g>
<defs>
<clipPath id="clip0">
<rect width="137.111" height="23" fill="white"/>
</clipPath>
</defs>
</svg>
